<svg width="110" height="115" viewBox="0 0 110 115" fill="none" xmlns="http://www.w3.org/2000/svg">
<circle cx="1" cy="6" r="1" fill="#847777"/>
<circle cx="13" cy="6" r="1" fill="#847777"/>
<circle cx="25" cy="6" r="1" fill="#847777"/>
<circle cx="37" cy="6" r="1" fill="#847777"/>
<circle cx="49" cy="6" r="1" fill="#847777"/>
<circle cx="61" cy="6" r="1" fill="#847777"/>
<circle cx="73" cy="6" r="1" fill="#847777"/>
<circle cx="85" cy="6" r="1" fill="#847777"/>
<circle cx="97" cy="6" r="1" fill="#847777"/>
<circle cx="109" cy="6" r="1" fill="#847777"/>
<circle cx="1" cy="18" r="1" fill="#847777"/>
<circle cx="13" cy="18" r="1" fill="#847777"/>
<circle cx="25" cy="18" r="1" fill="#847777"/>
<circle cx="37" cy="18" r="1" fill="#847777"/>
<circle cx="49" cy="18" r="1" fill="#847777"/>
<circle cx="61" cy="18" r="1" fill="#847777"/>
<circle cx="73" cy="18" r="1" fill="#847777"/>
<circle cx="85" cy="18" r="1" fill="#847777"/>
<circle cx="97" cy="18" r="1" fill="#847777"/>
<circle cx="109" cy="18" r="1" fill="#847777"/>
<circle cx="1" cy="30" r="1" fill="#847777"/>
<circle cx="13" cy="30" r="1" fill="#847777"/>
<circle cx="25" cy="30" r="1" fill="#847777"/>
<circle cx="37" cy="30" r="1" fill="#847777"/>
<circle cx="49" cy="30" r="1" fill="#847777"/>
<circle cx="61" cy="30" r="1" fill="#847777"/>
<circle cx="73" cy="30" r="1" fill="#847777"/>
<circle cx="85" cy="30" r="1" fill="#847777"/>
<circle cx="97" cy="30" r="1" fill="#847777"/>
<circle cx="109" cy="30" r="1" fill="#847777"/>
<circle cx="1" cy="42" r="1" fill="#847777"/>
<circle cx="13" cy="42" r="1" fill="#847777"/>
<circle cx="25" cy="42" r="1" fill="#847777"/>
<circle cx="37" cy="42" r="1" fill="#847777"/>
<circle cx="49" cy="42" r="1" fill="#847777"/>
<circle cx="61" cy="42" r="1" fill="#847777"/>
<circle cx="73" cy="42" r="1" fill="#847777"/>
<circle cx="85" cy="42" r="1" fill="#847777"/>
<circle cx="97" cy="42" r="1" fill="#847777"/>
<circle cx="109" cy="42" r="1" fill="#847777"/>
<circle cx="1" cy="54" r="1" fill="#847777"/>
<circle cx="13" cy="54" r="1" fill="#847777"/>
<circle cx="25" cy="54" r="1" fill="#847777"/>
<circle cx="37" cy="54" r="1" fill="#847777"/>
<circle cx="49" cy="54" r="1" fill="#847777"/>
<circle cx="61" cy="54" r="1" fill="#847777"/>
<circle cx="73" cy="54" r="1" fill="#847777"/>
<circle cx="85" cy="54" r="1" fill="#847777"/>
<circle cx="97" cy="54" r="1" fill="#847777"/>
<circle cx="109" cy="54" r="1" fill="#847777"/>
<circle cx="1" cy="66" r="1" fill="#847777"/>
<circle cx="13" cy="66" r="1" fill="#847777"/>
<circle cx="25" cy="66" r="1" fill="#847777"/>
<circle cx="37" cy="66" r="1" fill="#847777"/>
<circle cx="49" cy="66" r="1" fill="#847777"/>
<circle cx="61" cy="66" r="1" fill="#847777"/>
<circle cx="73" cy="66" r="1" fill="#847777"/>
<circle cx="85" cy="66" r="1" fill="#847777"/>
<circle cx="97" cy="66" r="1" fill="#847777"/>
<circle cx="109" cy="66" r="1" fill="#847777"/>
<circle cx="1" cy="78" r="1" fill="#847777"/>
<circle cx="13" cy="78" r="1" fill="#847777"/>
<circle cx="25" cy="78" r="1" fill="#847777"/>
<circle cx="37" cy="78" r="1" fill="#847777"/>
<circle cx="49" cy="78" r="1" fill="#847777"/>
<circle cx="61" cy="78" r="1" fill="#847777"/>
<circle cx="73" cy="78" r="1" fill="#847777"/>
<circle cx="85" cy="78" r="1" fill="#847777"/>
<circle cx="97" cy="78" r="1" fill="#847777"/>
<circle cx="109" cy="78" r="1" fill="#847777"/>
<circle cx="1" cy="90" r="1" fill="#847777"/>
<circle cx="13" cy="90" r="1" fill="#847777"/>
<circle cx="25" cy="90" r="1" fill="#847777"/>
<circle cx="37" cy="90" r="1" fill="#847777"/>
<circle cx="49" cy="90" r="1" fill="#847777"/>
<circle cx="61" cy="90" r="1" fill="#847777"/>
<circle cx="73" cy="90" r="1" fill="#847777"/>
<circle cx="85" cy="90" r="1" fill="#847777"/>
<circle cx="97" cy="90" r="1" fill="#847777"/>
<circle cx="109" cy="90" r="1" fill="#847777"/>
<circle cx="1" cy="102" r="1" fill="#847777"/>
<circle cx="13" cy="102" r="1" fill="#847777"/>
<circle cx="25" cy="102" r="1" fill="#847777"/>
<circle cx="37" cy="102" r="1" fill="#847777"/>
<circle cx="49" cy="102" r="1" fill="#847777"/>
<circle cx="61" cy="102" r="1" fill="#847777"/>
<circle cx="73" cy="102" r="1" fill="#847777"/>
<circle cx="85" cy="102" r="1" fill="#847777"/>
<circle cx="97" cy="102" r="1" fill="#847777"/>
<circle cx="109" cy="102" r="1" fill="#847777"/>
<circle cx="1" cy="114" r="1" fill="#847777"/>
<circle cx="13" cy="114" r="1" fill="#847777"/>
<circle cx="25" cy="114" r="1" fill="#847777"/>
<circle cx="37" cy="114" r="1" fill="#847777"/>
<circle cx="49" cy="114" r="1" fill="#847777"/>
<circle cx="61" cy="114" r="1" fill="#847777"/>
<circle cx="73" cy="114" r="1" fill="#847777"/>
<circle cx="85" cy="114" r="1" fill="#847777"/>
<circle cx="97" cy="114" r="1" fill="#847777"/>
<circle cx="109" cy="114" r="1" fill="#847777"/>
<circle cx="72.5" cy="37.5" r="30.5" stroke="#F66962" stroke-width="14"/>
</svg>
