<svg width="130" height="124" viewBox="0 0 130 124" fill="none" xmlns="http://www.w3.org/2000/svg">
<circle cx="37.5" cy="37.5" r="30.5" stroke="#FEF0EF" stroke-width="14"/>
<circle cx="21" cy="15" r="1" fill="#847777"/>
<circle cx="33" cy="15" r="1" fill="#847777"/>
<circle cx="45" cy="15" r="1" fill="#847777"/>
<circle cx="57" cy="15" r="1" fill="#847777"/>
<circle cx="69" cy="15" r="1" fill="#847777"/>
<circle cx="81" cy="15" r="1" fill="#847777"/>
<circle cx="93" cy="15" r="1" fill="#847777"/>
<circle cx="105" cy="15" r="1" fill="#847777"/>
<circle cx="117" cy="15" r="1" fill="#847777"/>
<circle cx="129" cy="15" r="1" fill="#847777"/>
<circle cx="21" cy="27" r="1" fill="#847777"/>
<circle cx="33" cy="27" r="1" fill="#847777"/>
<circle cx="45" cy="27" r="1" fill="#847777"/>
<circle cx="57" cy="27" r="1" fill="#847777"/>
<circle cx="69" cy="27" r="1" fill="#847777"/>
<circle cx="81" cy="27" r="1" fill="#847777"/>
<circle cx="93" cy="27" r="1" fill="#847777"/>
<circle cx="105" cy="27" r="1" fill="#847777"/>
<circle cx="117" cy="27" r="1" fill="#847777"/>
<circle cx="129" cy="27" r="1" fill="#847777"/>
<circle cx="21" cy="39" r="1" fill="#847777"/>
<circle cx="33" cy="39" r="1" fill="#847777"/>
<circle cx="45" cy="39" r="1" fill="#847777"/>
<circle cx="57" cy="39" r="1" fill="#847777"/>
<circle cx="69" cy="39" r="1" fill="#847777"/>
<circle cx="81" cy="39" r="1" fill="#847777"/>
<circle cx="93" cy="39" r="1" fill="#847777"/>
<circle cx="105" cy="39" r="1" fill="#847777"/>
<circle cx="117" cy="39" r="1" fill="#847777"/>
<circle cx="129" cy="39" r="1" fill="#847777"/>
<circle cx="21" cy="51" r="1" fill="#847777"/>
<circle cx="33" cy="51" r="1" fill="#847777"/>
<circle cx="45" cy="51" r="1" fill="#847777"/>
<circle cx="57" cy="51" r="1" fill="#847777"/>
<circle cx="69" cy="51" r="1" fill="#847777"/>
<circle cx="81" cy="51" r="1" fill="#847777"/>
<circle cx="93" cy="51" r="1" fill="#847777"/>
<circle cx="105" cy="51" r="1" fill="#847777"/>
<circle cx="117" cy="51" r="1" fill="#847777"/>
<circle cx="129" cy="51" r="1" fill="#847777"/>
<circle cx="21" cy="63" r="1" fill="#847777"/>
<circle cx="33" cy="63" r="1" fill="#847777"/>
<circle cx="45" cy="63" r="1" fill="#847777"/>
<circle cx="57" cy="63" r="1" fill="#847777"/>
<circle cx="69" cy="63" r="1" fill="#847777"/>
<circle cx="81" cy="63" r="1" fill="#847777"/>
<circle cx="93" cy="63" r="1" fill="#847777"/>
<circle cx="105" cy="63" r="1" fill="#847777"/>
<circle cx="117" cy="63" r="1" fill="#847777"/>
<circle cx="129" cy="63" r="1" fill="#847777"/>
<circle cx="21" cy="75" r="1" fill="#847777"/>
<circle cx="33" cy="75" r="1" fill="#847777"/>
<circle cx="45" cy="75" r="1" fill="#847777"/>
<circle cx="57" cy="75" r="1" fill="#847777"/>
<circle cx="69" cy="75" r="1" fill="#847777"/>
<circle cx="81" cy="75" r="1" fill="#847777"/>
<circle cx="93" cy="75" r="1" fill="#847777"/>
<circle cx="105" cy="75" r="1" fill="#847777"/>
<circle cx="117" cy="75" r="1" fill="#847777"/>
<circle cx="129" cy="75" r="1" fill="#847777"/>
<circle cx="21" cy="87" r="1" fill="#847777"/>
<circle cx="33" cy="87" r="1" fill="#847777"/>
<circle cx="45" cy="87" r="1" fill="#847777"/>
<circle cx="57" cy="87" r="1" fill="#847777"/>
<circle cx="69" cy="87" r="1" fill="#847777"/>
<circle cx="81" cy="87" r="1" fill="#847777"/>
<circle cx="93" cy="87" r="1" fill="#847777"/>
<circle cx="105" cy="87" r="1" fill="#847777"/>
<circle cx="117" cy="87" r="1" fill="#847777"/>
<circle cx="129" cy="87" r="1" fill="#847777"/>
<circle cx="21" cy="99" r="1" fill="#847777"/>
<circle cx="33" cy="99" r="1" fill="#847777"/>
<circle cx="45" cy="99" r="1" fill="#847777"/>
<circle cx="57" cy="99" r="1" fill="#847777"/>
<circle cx="69" cy="99" r="1" fill="#847777"/>
<circle cx="81" cy="99" r="1" fill="#847777"/>
<circle cx="93" cy="99" r="1" fill="#847777"/>
<circle cx="105" cy="99" r="1" fill="#847777"/>
<circle cx="117" cy="99" r="1" fill="#847777"/>
<circle cx="129" cy="99" r="1" fill="#847777"/>
<circle cx="21" cy="111" r="1" fill="#847777"/>
<circle cx="33" cy="111" r="1" fill="#847777"/>
<circle cx="45" cy="111" r="1" fill="#847777"/>
<circle cx="57" cy="111" r="1" fill="#847777"/>
<circle cx="69" cy="111" r="1" fill="#847777"/>
<circle cx="81" cy="111" r="1" fill="#847777"/>
<circle cx="93" cy="111" r="1" fill="#847777"/>
<circle cx="105" cy="111" r="1" fill="#847777"/>
<circle cx="117" cy="111" r="1" fill="#847777"/>
<circle cx="129" cy="111" r="1" fill="#847777"/>
<circle cx="21" cy="123" r="1" fill="#847777"/>
<circle cx="33" cy="123" r="1" fill="#847777"/>
<circle cx="45" cy="123" r="1" fill="#847777"/>
<circle cx="57" cy="123" r="1" fill="#847777"/>
<circle cx="69" cy="123" r="1" fill="#847777"/>
<circle cx="81" cy="123" r="1" fill="#847777"/>
<circle cx="93" cy="123" r="1" fill="#847777"/>
<circle cx="105" cy="123" r="1" fill="#847777"/>
<circle cx="117" cy="123" r="1" fill="#847777"/>
<circle cx="129" cy="123" r="1" fill="#847777"/>
</svg>
