<svg width="110" height="110" viewBox="0 0 110 110" fill="none" xmlns="http://www.w3.org/2000/svg">
<circle cx="1" cy="1" r="1" fill="#847777"/>
<circle cx="13" cy="1" r="1" fill="#847777"/>
<circle cx="25" cy="1" r="1" fill="#847777"/>
<circle cx="37" cy="1" r="1" fill="#847777"/>
<circle cx="49" cy="1" r="1" fill="#847777"/>
<circle cx="61" cy="1" r="1" fill="#847777"/>
<circle cx="73" cy="1" r="1" fill="#847777"/>
<circle cx="85" cy="1" r="1" fill="#847777"/>
<circle cx="97" cy="1" r="1" fill="#847777"/>
<circle cx="109" cy="1" r="1" fill="#847777"/>
<circle cx="1" cy="13" r="1" fill="#847777"/>
<circle cx="13" cy="13" r="1" fill="#847777"/>
<circle cx="25" cy="13" r="1" fill="#847777"/>
<circle cx="37" cy="13" r="1" fill="#847777"/>
<circle cx="49" cy="13" r="1" fill="#847777"/>
<circle cx="61" cy="13" r="1" fill="#847777"/>
<circle cx="73" cy="13" r="1" fill="#847777"/>
<circle cx="85" cy="13" r="1" fill="#847777"/>
<circle cx="97" cy="13" r="1" fill="#847777"/>
<circle cx="109" cy="13" r="1" fill="#847777"/>
<circle cx="1" cy="25" r="1" fill="#847777"/>
<circle cx="13" cy="25" r="1" fill="#847777"/>
<circle cx="25" cy="25" r="1" fill="#847777"/>
<circle cx="37" cy="25" r="1" fill="#847777"/>
<circle cx="49" cy="25" r="1" fill="#847777"/>
<circle cx="61" cy="25" r="1" fill="#847777"/>
<circle cx="73" cy="25" r="1" fill="#847777"/>
<circle cx="85" cy="25" r="1" fill="#847777"/>
<circle cx="97" cy="25" r="1" fill="#847777"/>
<circle cx="109" cy="25" r="1" fill="#847777"/>
<circle cx="1" cy="37" r="1" fill="#847777"/>
<circle cx="13" cy="37" r="1" fill="#847777"/>
<circle cx="25" cy="37" r="1" fill="#847777"/>
<circle cx="37" cy="37" r="1" fill="#847777"/>
<circle cx="49" cy="37" r="1" fill="#847777"/>
<circle cx="61" cy="37" r="1" fill="#847777"/>
<circle cx="73" cy="37" r="1" fill="#847777"/>
<circle cx="85" cy="37" r="1" fill="#847777"/>
<circle cx="97" cy="37" r="1" fill="#847777"/>
<circle cx="109" cy="37" r="1" fill="#847777"/>
<circle cx="1" cy="49" r="1" fill="#847777"/>
<circle cx="13" cy="49" r="1" fill="#847777"/>
<circle cx="25" cy="49" r="1" fill="#847777"/>
<circle cx="37" cy="49" r="1" fill="#847777"/>
<circle cx="49" cy="49" r="1" fill="#847777"/>
<circle cx="61" cy="49" r="1" fill="#847777"/>
<circle cx="73" cy="49" r="1" fill="#847777"/>
<circle cx="85" cy="49" r="1" fill="#847777"/>
<circle cx="97" cy="49" r="1" fill="#847777"/>
<circle cx="109" cy="49" r="1" fill="#847777"/>
<circle cx="1" cy="61" r="1" fill="#847777"/>
<circle cx="13" cy="61" r="1" fill="#847777"/>
<circle cx="25" cy="61" r="1" fill="#847777"/>
<circle cx="37" cy="61" r="1" fill="#847777"/>
<circle cx="49" cy="61" r="1" fill="#847777"/>
<circle cx="61" cy="61" r="1" fill="#847777"/>
<circle cx="73" cy="61" r="1" fill="#847777"/>
<circle cx="85" cy="61" r="1" fill="#847777"/>
<circle cx="97" cy="61" r="1" fill="#847777"/>
<circle cx="109" cy="61" r="1" fill="#847777"/>
<circle cx="1" cy="73" r="1" fill="#847777"/>
<circle cx="13" cy="73" r="1" fill="#847777"/>
<circle cx="25" cy="73" r="1" fill="#847777"/>
<circle cx="37" cy="73" r="1" fill="#847777"/>
<circle cx="49" cy="73" r="1" fill="#847777"/>
<circle cx="61" cy="73" r="1" fill="#847777"/>
<circle cx="73" cy="73" r="1" fill="#847777"/>
<circle cx="85" cy="73" r="1" fill="#847777"/>
<circle cx="97" cy="73" r="1" fill="#847777"/>
<circle cx="109" cy="73" r="1" fill="#847777"/>
<circle cx="1" cy="85" r="1" fill="#847777"/>
<circle cx="13" cy="85" r="1" fill="#847777"/>
<circle cx="25" cy="85" r="1" fill="#847777"/>
<circle cx="37" cy="85" r="1" fill="#847777"/>
<circle cx="49" cy="85" r="1" fill="#847777"/>
<circle cx="61" cy="85" r="1" fill="#847777"/>
<circle cx="73" cy="85" r="1" fill="#847777"/>
<circle cx="85" cy="85" r="1" fill="#847777"/>
<circle cx="97" cy="85" r="1" fill="#847777"/>
<circle cx="109" cy="85" r="1" fill="#847777"/>
<circle cx="1" cy="97" r="1" fill="#847777"/>
<circle cx="13" cy="97" r="1" fill="#847777"/>
<circle cx="25" cy="97" r="1" fill="#847777"/>
<circle cx="37" cy="97" r="1" fill="#847777"/>
<circle cx="49" cy="97" r="1" fill="#847777"/>
<circle cx="61" cy="97" r="1" fill="#847777"/>
<circle cx="73" cy="97" r="1" fill="#847777"/>
<circle cx="85" cy="97" r="1" fill="#847777"/>
<circle cx="97" cy="97" r="1" fill="#847777"/>
<circle cx="109" cy="97" r="1" fill="#847777"/>
<circle cx="1" cy="109" r="1" fill="#847777"/>
<circle cx="13" cy="109" r="1" fill="#847777"/>
<circle cx="25" cy="109" r="1" fill="#847777"/>
<circle cx="37" cy="109" r="1" fill="#847777"/>
<circle cx="49" cy="109" r="1" fill="#847777"/>
<circle cx="61" cy="109" r="1" fill="#847777"/>
<circle cx="73" cy="109" r="1" fill="#847777"/>
<circle cx="85" cy="109" r="1" fill="#847777"/>
<circle cx="97" cy="109" r="1" fill="#847777"/>
<circle cx="109" cy="109" r="1" fill="#847777"/>
</svg>
